# xmcd
#
# Track frame offsets:
#	150
#	11385
#	23695
#	33235
#	46777
#	58160
#	77117
#	89670
#	102775
#	115440
#	128030
#	138350
#	151642
#	164885
#	175997
#	187062
#
# Disc length: 2674 seconds
#
# Revision: 1
# Processed by: cddbd v1.5.2PL0 Copyright (c) Steve Scherf et al.
# Submitted via: EasyCDDAExtractor 11.1.0.1
#
DISCID=ce0a7010
DTITLE=Various Artist - Going West With The Best - Disc 2
DYEAR=2000
DGENRE=Country
TTITLE0=Tammy Wynette - DIVORCE
TTITLE1=Kenny Rogers - Rueben James
TTITLE2=Lynn Anderson - Snowbird
TTITLE3=Jimmy Dean - Big Bad John
TTITLE4=Donna Fargo - The Happiest Girl In The Whole USA
TTITLE5=Tom T Hall - Old Dogs, Children And Watermelon Wine
TTITLE6=Patsy Cline - I Fall To Pieces
TTITLE7=Charlie Rich - Behind Closed Doors
TTITLE8=Claude King - Wolverton Mountain
TTITLE9=Anne Murray - I Just Fall In Love Again
TTITLE10=Ferlin Husky - Wings Of A Dove
TTITLE11=Faron Young - It's Four In The Morning
TTITLE12=Gene Pitney - The Man Who Shot Liberty Valance
TTITLE13=Roger Miller - King Of The Road
TTITLE14=Hank Locklin - Send Me The Pillow That You Dream On
TTITLE15=Jim Croce - Bad Bad Leroy Brown
EXTD=
EXTT0=
EXTT1=
EXTT2=
EXTT3=
EXTT4=
EXTT5=
EXTT6=
EXTT7=
EXTT8=
EXTT9=
EXTT10=
EXTT11=
EXTT12=
EXTT13=
EXTT14=
EXTT15=
PLAYORDER=
